<svg width="960" height="640" viewBox="0 0 960 640" fill="none" xmlns="http://www.w3.org/2000/svg">
  <rect width="960" height="640" rx="36" fill="#08090D"/>
  <defs>
    <linearGradient id="auroraSky" x1="0" y1="0" x2="1" y2="1">
      <stop offset="0%" stop-color="#0B1226"/>
      <stop offset="35%" stop-color="#061120"/>
      <stop offset="100%" stop-color="#090A10"/>
    </linearGradient>
    <linearGradient id="auroraGlow" x1="0" y1="0" x2="1" y2="1">
      <stop offset="0%" stop-color="#4F8CFF" stop-opacity="0.75"/>
      <stop offset="40%" stop-color="#31C3FF" stop-opacity="0.35"/>
      <stop offset="100%" stop-color="#4F8CFF" stop-opacity="0"/>
    </linearGradient>
    <linearGradient id="panelGrad" x1="0" y1="0" x2="1" y2="1">
      <stop offset="0%" stop-color="#121827"/>
      <stop offset="100%" stop-color="#0B1222"/>
    </linearGradient>
  </defs>

  <rect x="60" y="60" width="840" height="520" rx="34" fill="url(#auroraSky)" stroke="rgba(255,255,255,0.12)"/>
  <ellipse cx="520" cy="180" rx="260" ry="110" fill="url(#auroraGlow)" filter="url(#blur)"/>
  <ellipse cx="420" cy="170" rx="180" ry="70" fill="#4F8CFF" opacity="0.18"/>
  <path d="M120 420C200 340 340 300 540 312C760 324 840 420 840 420V520H120V420Z" fill="#10213B" opacity="0.7"/>
  <path d="M120 420C200 360 340 320 540 332C760 344 840 420 840 420" stroke="#4F8CFF" stroke-opacity="0.28" stroke-width="2"/>
  <path d="M135 398C226 326 372 294 536 304C736 316 820 394 820 394" stroke="#94C2FF" stroke-opacity="0.18" stroke-width="4"/>

  <g opacity="0.95">
    <rect x="120" y="130" width="236" height="148" rx="24" fill="url(#panelGrad)" stroke="rgba(255,255,255,0.08)"/>
    <rect x="380" y="130" width="150" height="148" rx="24" fill="url(#panelGrad)" stroke="rgba(255,255,255,0.08)"/>
    <rect x="560" y="130" width="220" height="148" rx="24" fill="url(#panelGrad)" stroke="rgba(255,255,255,0.08)"/>
    <rect x="120" y="318" width="720" height="162" rx="28" fill="#0C1224" stroke="rgba(255,255,255,0.08)"/>
  </g>

  <circle cx="198" cy="204" r="50" fill="#4F8CFF" fill-opacity="0.82"/>
  <rect x="156" y="360" width="142" height="18" rx="9" fill="#E9F2FF" fill-opacity="0.82"/>
  <rect x="156" y="392" width="216" height="14" rx="7" fill="#E9F2FF" fill-opacity="0.45"/>
  <rect x="162" y="430" width="112" height="10" rx="5" fill="#D1E4FF" fill-opacity="0.32"/>
  <rect x="462" y="172" width="74" height="16" rx="8" fill="#E9F2FF" fill-opacity="0.75"/>
  <rect x="608" y="172" width="132" height="16" rx="8" fill="#4F8CFF" fill-opacity="0.8"/>
  <rect x="608" y="212" width="190" height="12" rx="6" fill="#E9F2FF" fill-opacity="0.45"/>
  <path d="M432 280H620" stroke="#4F8CFF" stroke-width="4" opacity="0.9" stroke-linecap="round"/>
  <path d="M432 310H560" stroke="#A2C9FF" stroke-width="4" opacity="0.65" stroke-linecap="round"/>
  <path d="M432 340H500" stroke="#8EB9FF" stroke-width="4" opacity="0.45" stroke-linecap="round"/>

  <defs>
    <filter id="blur" x="0" y="0" width="100%" height="100%">
      <feGaussianBlur stdDeviation="28" />
    </filter>
  </defs>
</svg>
