<svg width="960" height="640" viewBox="0 0 960 640" fill="none" xmlns="http://www.w3.org/2000/svg">
  <rect width="960" height="640" rx="36" fill="#05070E" />
  <defs>
    <linearGradient id="studioBg" x1="0" y1="0" x2="1" y2="1">
      <stop offset="0%" stop-color="#07101F" />
      <stop offset="100%" stop-color="#08111E" />
    </linearGradient>
    <linearGradient id="studioAccent" x1="0" y1="0" x2="1" y2="1">
      <stop offset="0%" stop-color="#4F8CFF" />
      <stop offset="100%" stop-color="#1CB5FF" />
    </linearGradient>
    <filter id="softGlow" x="-20%" y="-20%" width="140%" height="140%">
      <feGaussianBlur stdDeviation="18" result="blur" />
      <feMerge>
        <feMergeNode in="blur" />
        <feMergeNode in="SourceGraphic" />
      </feMerge>
    </filter>
  </defs>

  <rect x="92" y="92" width="776" height="456" rx="36" fill="url(#studioBg)" stroke="rgba(255,255,255,0.14)" />

  <g filter="url(#softGlow)">
    <path d="M198 224C238 168 314 144 396 156C482 168 530 216 608 238C694 262 722 304 732 356" stroke="url(#studioAccent)" stroke-width="24" stroke-linecap="round" opacity="0.52" />
    <path d="M186 266C224 202 296 180 360 188C430 196 492 240 562 265C620 286 662 328 686 380" stroke="#4F8CFF" stroke-width="16" stroke-linecap="round" opacity="0.45" />
  </g>

  <rect x="152" y="154" width="272" height="160" rx="30" fill="#0A101E" stroke="rgba(255,255,255,0.08)" />
  <rect x="432" y="154" width="272" height="160" rx="30" fill="#0A101E" stroke="rgba(255,255,255,0.08)" />
  <rect x="712" y="154" width="108" height="160" rx="30" fill="#0A101E" stroke="rgba(255,255,255,0.08)" />

  <rect x="154" y="330" width="638" height="124" rx="32" fill="#08101E" stroke="rgba(255,255,255,0.08)" />
  <rect x="192" y="366" width="140" height="18" rx="9" fill="#4F8CFF" opacity="0.92" />
  <rect x="192" y="406" width="238" height="14" rx="7" fill="#FFFFFF" opacity="0.22" />
  <rect x="192" y="434" width="184" height="14" rx="7" fill="#FFFFFF" opacity="0.18" />

  <circle cx="396" cy="234" r="54" fill="#4F8CFF" opacity="0.8" />
  <circle cx="616" cy="256" r="34" fill="#1DB7FF" opacity="0.85" />
  <circle cx="748" cy="276" r="24" fill="#4F8CFF" opacity="0.75" />

  <path d="M324 210C332 196 346 188 364 188C382 188 398 198 410 212" stroke="#D7E9FF" stroke-width="4" stroke-linecap="round" />
  <path d="M456 198L540 198" stroke="#E8F2FF" stroke-width="6" stroke-linecap="round" opacity="0.7" />
  <path d="M516 224L680 224" stroke="#A7C9FF" stroke-width="6" stroke-linecap="round" opacity="0.6" />

  <rect x="456" y="294" width="172" height="20" rx="10" fill="#FFFFFF" opacity="0.9" />
  <rect x="456" y="328" width="212" height="14" rx="7" fill="#FFFFFF" opacity="0.28" />
  <rect x="456" y="356" width="124" height="12" rx="6" fill="#4F8CFF" opacity="0.36" />

  <rect x="686" y="246" width="108" height="52" rx="16" fill="#0F1729" stroke="rgba(255,255,255,0.08)" />
  <path d="M706 272C714 260 728 256 742 264" stroke="#4F8CFF" stroke-width="3" stroke-linecap="round" />
  <path d="M716 256L726 244L742 250" stroke="#E6CFFF" stroke-width="2" stroke-linecap="round" />
</svg>
