<svg width="960" height="640" viewBox="0 0 960 640" fill="none" xmlns="http://www.w3.org/2000/svg">
  <rect width="960" height="640" rx="36" fill="#03060F" />
  <defs>
    <linearGradient id="panelGlow" x1="0" y1="0" x2="1" y2="1">
      <stop offset="0%" stop-color="#071122" />
      <stop offset="100%" stop-color="#090C17" />
    </linearGradient>
    <linearGradient id="northstarGold" x1="0" y1="0" x2="1" y2="1">
      <stop offset="0%" stop-color="#E6C371" />
      <stop offset="100%" stop-color="#D49B35" />
    </linearGradient>
    <radialGradient id="starGlow" cx="0.5" cy="0.5" r="0.75">
      <stop offset="0%" stop-color="#FFD776" stop-opacity="0.9" />
      <stop offset="80%" stop-color="#FFD776" stop-opacity="0" />
    </radialGradient>
  </defs>

  <rect x="84" y="84" width="792" height="472" rx="34" fill="url(#panelGlow)" stroke="rgba(255,255,255,0.14)" />

  <path d="M150 520C210 430 330 400 490 420C650 440 782 520 782 520" fill="#08122C" />
  <path d="M150 520C210 430 330 400 490 420C650 440 782 520" stroke="#4F8CFF" stroke-width="2" opacity="0.45" />

  <rect x="136" y="150" width="316" height="96" rx="24" fill="#0F1726" stroke="rgba(255,255,255,0.08)" />
  <rect x="136" y="264" width="316" height="20" rx="10" fill="#4F8CFF" opacity="0.84" />
  <rect x="136" y="300" width="264" height="16" rx="8" fill="#FFFFFF" opacity="0.28" />
  <rect x="136" y="332" width="192" height="16" rx="8" fill="#FFFFFF" opacity="0.18" />

  <rect x="470" y="140" width="336" height="220" rx="28" fill="url(#panelGlow)" stroke="rgba(255,255,255,0.1)" />
  <path d="M528 192C550 176 590 166 628 166C678 166 704 192 722 214C758 260 748 320 716 346C688 368 650 374 614 362C584 352 562 328 536 306C520 288 520 203 528 192Z" fill="url(#starGlow)" />
  <circle cx="644" cy="204" r="32" fill="#F5D583" />
  <path d="M660 176L684 204L660 232" stroke="#0B1021" stroke-width="3" stroke-linecap="round" stroke-linejoin="round" />
  <circle cx="700" cy="170" r="4" fill="#FFFFFF" />

  <rect x="508" y="190" width="128" height="18" rx="10" fill="#FFFFFF" opacity="0.8" />
  <rect x="508" y="224" width="170" height="14" rx="7" fill="#FFFFFF" opacity="0.7" />
  <rect x="508" y="254" width="192" height="14" rx="7" fill="#4F8CFF" opacity="0.75" />
  <rect x="508" y="290" width="220" height="12" rx="6" fill="#FFFFFF" opacity="0.35" />
  <rect x="508" y="320" width="132" height="12" rx="6" fill="#FFFFFF" opacity="0.22" />

  <rect x="136" y="386" width="700" height="132" rx="28" fill="#071222" stroke="rgba(255,255,255,0.08)" />
  <rect x="166" y="420" width="196" height="20" rx="10" fill="#E6C371" opacity="0.95" />
  <rect x="166" y="456" width="306" height="14" rx="7" fill="#FFFFFF" opacity="0.35" />
  <rect x="166" y="486" width="232" height="14" rx="7" fill="#FFFFFF" opacity="0.24" />

  <circle cx="700" cy="478" r="20" fill="#4F8CFF" opacity="0.75" />
  <circle cx="748" cy="460" r="14" fill="#FFFFFF" opacity="0.8" />
  <rect x="678" y="318" width="120" height="52" rx="16" fill="#0E172A" stroke="rgba(255,255,255,0.08)" />
  <path d="M698 346C708 334 728 330 744 338" stroke="#4F8CFF" stroke-width="3" stroke-linecap="round" />
  <path d="M710 330L718 316L740 324" stroke="#E6C371" stroke-width="2" stroke-linecap="round" />
</svg>
